<svg width="56" height="76" viewBox="0 0 56 76" fill="none" xmlns="http://www.w3.org/2000/svg">
<path d="M45.3872 28.0645H42.9033V15.6452C42.9033 11.5298 41.4482 8.01703 38.5383 5.107C35.6282 2.19696 32.1155 0.741943 28.0001 0.741943C23.8847 0.741943 20.372 2.19696 17.4619 5.107C14.5519 8.01703 13.0968 11.5298 13.0968 15.6452V28.0645H10.613C7.87061 28.0675 5.52984 29.0386 3.5907 30.9777C1.65156 32.9169 0.680484 35.2577 0.67749 38V65.3226C0.680484 68.0649 1.65156 70.4057 3.5907 72.3449C5.52984 74.284 7.87061 75.2551 10.613 75.2581H45.3872C48.1295 75.2551 50.4703 74.284 52.4094 72.3449C54.3486 70.4057 55.3197 68.0649 55.3227 65.3226V38C55.3197 35.2577 54.3486 32.9169 52.4094 30.9777C50.4703 29.0386 48.1295 28.0675 45.3872 28.0645ZM37.9356 28.0645H18.0646V15.6452C18.0646 12.9016 19.0345 10.5597 20.9746 8.61973C22.9146 6.6797 25.2565 5.70969 28.0001 5.70969C30.7436 5.70969 33.0855 6.6797 35.0256 8.61973C36.9656 10.5597 37.9356 12.9016 37.9356 15.6452V28.0645Z" fill="#FDAE03"/>
</svg>
